# xmcd
#
# Track frame offsets: 
#        150
#        17621
#        37329
#        56778
#        75725
#        96186
#        116745
#        134476
#        154822
#        173026
#        193063
#        212630
#
# Disc length: 3075 seconds
#
# Revision: 0
# Processed by: cddbd v1.5.2PL0 Copyright (c) Steve Scherf et al.
# Submitted via: ExactAudioCopy v1.2
#
DISCID=aa0c010c
DTITLE=Johnny Britt - So Hot
DYEAR=2018
DGENRE=Jazz
TTITLE0=So Hot (feat. Paul Brown)
TTITLE1=Hot Fun In the Summer (feat. Najee)
TTITLE2=Highway 10
TTITLE3=Heaven Sent (Introducing Josh Britt) (feat. Josh Britt)
TTITLE4=Love Is Amazing (feat. Kashan)
TTITLE5=Loving You
TTITLE6=Night Time Rain (feat. Nils)
TTITLE7=Let's Make a Toast
TTITLE8=Take Your Time
TTITLE9=It Is What It Is
TTITLE10=Aretha
TTITLE11=Do What You Wanna Do
EXTD=
EXTT0=
EXTT1=
EXTT2=
EXTT3=
EXTT4=
EXTT5=
EXTT6=
EXTT7=
EXTT8=
EXTT9=
EXTT10=
EXTT11=
PLAYORDER=
